HIERARCHY
ROOT hips
{
	OFFSET -0.003675 0.299928 -0.021708
	CHANNELS 6 Xposition Yposition Zposition Xrotation Yrotation Zrotation
	JOINT LowerBack
	{
		OFFSET 0.000919 0.177588 0.009275
		CHANNELS 3 Xrotation Yrotation Zrotation
		JOINT spine
		{
			OFFSET 0.000919 0.177588 0.009275
			CHANNELS 3 Xrotation Yrotation Zrotation
			JOINT chest
			{
				OFFSET 0.000456 0.100015 0.004638
				CHANNELS 3 Xrotation Yrotation Zrotation
				JOINT neck
				{
					OFFSET 0.000456 0.100015 0.004638
					CHANNELS 3 Xrotation Yrotation Zrotation
					JOINT head
					{
						OFFSET 0.000924 0.155147 0.009274
						CHANNELS 6 Xposition Yposition Zposition Xrotation Yrotation Zrotation
						End Site
						{
							OFFSET 0.000000 0.153400 0.000000
						}
					}
				}
				JOINT shoulder.L
				{
					OFFSET 0.019937 0.078966 0.057518
					CHANNELS 6 Xposition Yposition Zposition Yrotation Xrotation Zrotation
					JOINT upper_arm.L
					{
						OFFSET 0.177024 -0.020465 -0.095062
						CHANNELS 6 Xposition Yposition Zposition Xrotation Yrotation Zrotation
						JOINT forearm.L
						{
							OFFSET 0.247100 -0.135500 -0.061800
							CHANNELS 3 Xrotation Yrotation Zrotation
							JOINT hand.L
							{
								OFFSET 0.217000 -0.143000 0.039300
								CHANNELS 3 Xrotation Yrotation Zrotation
								JOINT palm.01.L
								{
									OFFSET 0.021770 -0.038291 0.012954
									CHANNELS 6 Xposition Yposition Zposition Yrotation Xrotation Zrotation
									JOINT f_index.01.L
									{
										OFFSET 0.053215 -0.044137 0.008236
										CHANNELS 3 Xrotation Yrotation Zrotation
										JOINT f_index.02.L
										{
											OFFSET 0.036108 -0.024723 -0.010656
											CHANNELS 3 Xrotation Yrotation Zrotation
											JOINT f_index.03.L
											{
												OFFSET 0.021342 -0.014948 -0.010846
												CHANNELS 3 Xrotation Yrotation Zrotation
												End Site
												{
													OFFSET 0.015600 -0.009860 -0.013421
												}
											}
										}
									}
									JOINT thumb.01.L
									{
										OFFSET -0.009090 -0.002348 -0.024223
										CHANNELS 6 Xposition Yposition Zposition Xrotation Yrotation Zrotation
										JOINT thumb.02.L
										{
											OFFSET 0.019713 -0.035076 -0.011120
											CHANNELS 3 Xrotation Yrotation Zrotation
											JOINT thumb.03.L
											{
												OFFSET 0.024877 -0.021748 -0.005176
												CHANNELS 3 Xrotation Yrotation Zrotation
												End Site
												{
													OFFSET 0.016125 -0.013029 -0.001569
												}
											}
										}
									}
								}
								JOINT palm.02.L
								{
									OFFSET 0.032823 -0.025104 0.012281
									CHANNELS 6 Xposition Yposition Zposition Yrotation Xrotation Zrotation
									JOINT f_middle.01.L
									{
										OFFSET 0.055723 -0.038469 0.008037
										CHANNELS 3 Xrotation Yrotation Zrotation
										JOINT f_middle.02.L
										{
											OFFSET 0.038167 -0.027473 -0.015582
											CHANNELS 3 Xrotation Yrotation Zrotation
											JOINT f_middle.03.L
											{
												OFFSET 0.021707 -0.016587 -0.017037
												CHANNELS 3 Xrotation Yrotation Zrotation
												End Site
												{
													OFFSET 0.014112 -0.010584 -0.014294
												}
											}
										}
									}
								}
								JOINT palm.03.L
								{
									OFFSET 0.039230 -0.011402 0.008390
									CHANNELS 6 Xposition Yposition Zposition Yrotation Xrotation Zrotation
									JOINT f_ring.01.L
									{
										OFFSET 0.061796 -0.031470 0.007910
										CHANNELS 3 Xrotation Yrotation Zrotation
										JOINT f_ring.02.L
										{
											OFFSET 0.033092 -0.023401 -0.019127
											CHANNELS 3 Xrotation Yrotation Zrotation
											JOINT f_ring.03.L
											{
												OFFSET 0.021392 -0.015362 -0.017824
												CHANNELS 3 Xrotation Yrotation Zrotation
												End Site
												{
													OFFSET 0.008670 -0.007297 -0.014686
												}
											}
										}
									}
								}
								JOINT palm.04.L
								{
									OFFSET 0.043417 0.002450 0.002889
									CHANNELS 6 Xposition Yposition Zposition Yrotation Xrotation Zrotation
									JOINT f_pinky.01.L
									{
										OFFSET 0.069986 -0.026156 0.003627
										CHANNELS 3 Xrotation Yrotation Zrotation
										JOINT f_pinky.02.L
										{
											OFFSET 0.018520 -0.012813 -0.016429
											CHANNELS 3 Xrotation Yrotation Zrotation
											JOINT f_pinky.03.L
											{
												OFFSET 0.013822 -0.009796 -0.014947
												CHANNELS 3 Xrotation Yrotation Zrotation
												End Site
												{
													OFFSET 0.007238 -0.006103 -0.011657
												}
											}
										}
									}
								}
							}
						}
					}
				}
				JOINT shoulder.R
				{
					OFFSET -0.016662 0.078957 0.057696
					CHANNELS 6 Xposition Yposition Zposition Yrotation Xrotation Zrotation
					JOINT upper_arm.R
					{
						OFFSET -0.176972 -0.020537 -0.095144
						CHANNELS 6 Xposition Yposition Zposition Xrotation Yrotation Zrotation
						JOINT forearm.R
						{
							OFFSET -0.247100 -0.135500 -0.061800
							CHANNELS 3 Xrotation Yrotation Zrotation
							JOINT hand.R
							{
								OFFSET -0.217000 -0.143000 0.039300
								CHANNELS 3 Xrotation Yrotation Zrotation
								JOINT palm.01.R
								{
									OFFSET -0.021773 -0.038278 0.012988
									CHANNELS 6 Xposition Yposition Zposition Yrotation Xrotation Zrotation
									JOINT f_index.01.R
									{
										OFFSET -0.053212 -0.044139 0.008249
										CHANNELS 3 Xrotation Yrotation Zrotation
										JOINT f_index.02.R
										{
											OFFSET -0.036049 -0.024835 -0.010634
											CHANNELS 3 Xrotation Yrotation Zrotation
											JOINT f_index.03.R
											{
												OFFSET -0.021371 -0.014881 -0.010866
												CHANNELS 3 Xrotation Yrotation Zrotation
												End Site
												{
													OFFSET -0.015584 -0.009883 -0.013422
												}
											}
										}
									}
									JOINT thumb.01.R
									{
										OFFSET 0.009113 -0.002381 -0.024211
										CHANNELS 6 Xposition Yposition Zposition Xrotation Yrotation Zrotation
										JOINT thumb.02.R
										{
											OFFSET -0.019694 -0.035097 -0.011088
											CHANNELS 3 Xrotation Yrotation Zrotation
											JOINT thumb.03.R
											{
												OFFSET -0.024867 -0.021762 -0.005168
												CHANNELS 3 Xrotation Yrotation Zrotation
												End Site
												{
													OFFSET -0.016120 -0.013036 -0.001565
												}
											}
										}
									}
								}
								JOINT palm.02.R
								{
									OFFSET -0.032828 -0.025095 0.012286
									CHANNELS 6 Xposition Yposition Zposition Yrotation Xrotation Zrotation
									JOINT f_middle.01.R
									{
										OFFSET -0.055721 -0.038472 0.008040
										CHANNELS 3 Xrotation Yrotation Zrotation
										JOINT f_middle.02.R
										{
											OFFSET -0.038101 -0.027593 -0.015557
											CHANNELS 3 Xrotation Yrotation Zrotation
											JOINT f_middle.03.R
											{
												OFFSET -0.021730 -0.016530 -0.017054
												CHANNELS 3 Xrotation Yrotation Zrotation
												End Site
												{
													OFFSET -0.014096 -0.010608 -0.014293
												}
											}
										}
									}
								}
								JOINT palm.03.R
								{
									OFFSET -0.039192 -0.011488 0.008390
									CHANNELS 6 Xposition Yposition Zposition Yrotation Xrotation Zrotation
									JOINT f_ring.01.R
									{
										OFFSET -0.061839 -0.031387 0.007876
										CHANNELS 3 Xrotation Yrotation Zrotation
										JOINT f_ring.02.R
										{
											OFFSET -0.033068 -0.023437 -0.019125
											CHANNELS 3 Xrotation Yrotation Zrotation
											JOINT f_ring.03.R
											{
												OFFSET -0.021371 -0.015393 -0.017822
												CHANNELS 3 Xrotation Yrotation Zrotation
												End Site
												{
													OFFSET -0.008654 -0.007321 -0.014684
												}
											}
										}
									}
								}
								JOINT palm.04.R
								{
									OFFSET -0.043421 0.002443 0.002845
									CHANNELS 6 Xposition Yposition Zposition Yrotation Xrotation Zrotation
									JOINT f_pinky.01.R
									{
										OFFSET -0.069983 -0.026169 0.003599
										CHANNELS 3 Xrotation Yrotation Zrotation
										JOINT f_pinky.02.R
										{
											OFFSET -0.018501 -0.012842 -0.016428
											CHANNELS 3 Xrotation Yrotation Zrotation
											JOINT f_pinky.03.R
											{
												OFFSET -0.013806 -0.009821 -0.014946
												CHANNELS 3 Xrotation Yrotation Zrotation
												End Site
												{
													OFFSET -0.007226 -0.006121 -0.011655
												}
											}
										}
									}
								}
							}
						}
					}
				}
			}
		}
	}
	JOINT pelvis.L
	{
		OFFSET 0.000000 0.000000 0.000000
		CHANNELS 6 Xposition Yposition Zposition Xrotation Yrotation Zrotation
		JOINT thigh.L
		{
			OFFSET 0.101675 0.001054 -0.000000
			CHANNELS 3 Xrotation Yrotation Zrotation
			JOINT shin.L
			{
				OFFSET 0.000000 -0.534800 0.041000
				CHANNELS 3 Xrotation Yrotation Zrotation
				JOINT foot.L
				{
					OFFSET 0.000000 -0.452000 -0.044800
					CHANNELS 3 Xrotation Yrotation Zrotation
					JOINT toe.L
					{
						OFFSET -0.000000 -0.068500 0.109600
						CHANNELS 3 Xrotation Yrotation Zrotation
						End Site
						{
							OFFSET -0.000000 0.000000 0.067200
						}
					}
				}
				JOINT heel.L
				{
					OFFSET 0.000000 -0.452000 -0.044800
					CHANNELS 3 Xrotation Yrotation Zrotation
					JOINT heel.02.L
					{
						OFFSET -0.038000 -0.085200 0.016200
						CHANNELS 6 Xposition Yposition Zposition Xrotation Yrotation Zrotation
						End Site
						{
							OFFSET 0.080000 -0.000000 0.000000
						}
					}
				}
			}
		}
	}
	JOINT pelvis.R
	{
		OFFSET 0.000000 0.000000 0.000000
		CHANNELS 6 Xposition Yposition Zposition Xrotation Yrotation Zrotation
		JOINT thigh.R
		{
			OFFSET -0.094325 0.001054 0.000000
			CHANNELS 3 Xrotation Yrotation Zrotation
			JOINT shin.R
			{
				OFFSET 0.000000 -0.534800 0.041000
				CHANNELS 3 Xrotation Yrotation Zrotation
				JOINT foot.R
				{
					OFFSET 0.000000 -0.452000 -0.044800
					CHANNELS 3 Xrotation Yrotation Zrotation
					JOINT toe.R
					{
						OFFSET -0.000000 -0.068500 0.109600
						CHANNELS 3 Xrotation Yrotation Zrotation
						End Site
						{
							OFFSET -0.000000 0.000000 0.067200
						}
					}
				}
				JOINT heel.R
				{
					OFFSET 0.000000 -0.452000 -0.044800
					CHANNELS 3 Xrotation Yrotation Zrotation
					JOINT heel.02.R
					{
						OFFSET 0.038000 -0.085200 0.016200
						CHANNELS 6 Xposition Yposition Zposition Xrotation Yrotation Zrotation
						End Site
						{
							OFFSET -0.080000 0.000000 -0.000000
						}
					}
				}
			}
		}
	}
}
MOTION
Frames: 4
Frame Time: 0.041667
-0.015937 0.209087 -0.045196 10.556053 23.169663 82.283043 0.000002 -0.000000 0.000001 0.000001 0.000001 0.000001 -0.000001 -0.000001 0.000001 0.000002 -0.000001 0.000000 0.000924 0.155147 0.009274 40.648822 -0.054882 -19.315263 0.019937 0.078966 0.057518 -2.657429 -1.969391 39.244761 0.177025 -0.020465 -0.095062 -45.955364 4.850245 -44.031771 11.035141 19.776864 3.820856 -0.000001 0.000004 -0.000001 0.021770 -0.038291 0.012954 0.000001 -0.000000 -0.000002 -0.000003 -0.000001 -0.000000 0.000000 -0.000002 0.000003 0.000002 0.000001 -0.000005 -0.009090 -0.002348 -0.024224 -0.000001 0.000000 -0.000001 0.000001 0.000000 -0.000000 -0.000000 -0.000000 -0.000002 0.032823 -0.025104 0.012281 0.000001 -0.000000 -0.000001 0.000001 0.000001 -0.000003 -0.000003 0.000000 0.000008 0.000002 0.000002 -0.000003 0.039230 -0.011402 0.008390 0.000002 -0.000000 0.000006 0.000003 0.000001 -0.000002 -0.000001 0.000003 0.000001 0.000002 -0.000002 0.000003 0.043417 0.002449 0.002889 -0.000001 -0.000000 -0.000000 -0.000000 0.000001 -0.000002 -0.000000 -0.000002 -0.000005 0.000004 -0.000006 -0.000001 -0.016662 0.078957 0.057696 -0.739518 -6.437043 -22.415568 -0.176972 -0.020537 -0.095144 148.127515 -160.050716 -108.642027 -162.413757 192.141240 -159.706311 0.000003 0.000000 0.000000 -0.021773 -0.038278 0.012988 0.000000 -0.000000 -0.000002 -0.000003 -0.000002 0.000002 -0.000000 -0.000002 -0.000003 -0.000003 0.000003 -0.000000 0.009114 -0.002381 -0.024212 -0.000000 -0.000003 0.000002 -0.000001 -0.000001 0.000000 -0.000001 -0.000000 -0.000003 -0.032828 -0.025095 0.012286 0.000001 0.000000 0.000001 -0.000001 0.000001 0.000002 0.000001 0.000000 -0.000002 -0.000006 -0.000002 -0.000003 -0.039192 -0.011488 0.008390 0.000001 0.000001 0.000001 -0.000000 0.000001 -0.000002 0.000001 -0.000004 -0.000000 -0.000002 0.000001 -0.000001 -0.043421 0.002443 0.002845 0.000001 0.000002 0.000000 -0.000005 0.000002 -0.000001 -0.000004 0.000001 -0.000002 -0.000001 -0.000000 0.000001 -0.000000 0.000000 -0.000000 -3.094573 -0.139337 0.398120 -118.686831 -1.127040 -11.087987 168.260221 -1.744384 17.897153 -0.000002 0.000000 -0.000004 -0.000003 0.000000 -0.000001 0.000000 0.000001 -0.000002 -0.038000 -0.085200 0.016200 -0.000002 0.000000 -0.000001 -0.000000 0.000000 -0.000000 -3.034527 -0.138295 1.632449 -110.508998 0.660130 3.961905 146.887125 0.721554 -7.296419 0.000002 -0.000001 -0.000001 0.000002 0.000000 -0.000000 0.000009 0.000000 -0.000000 0.038000 -0.085200 0.016200 -0.000001 -0.000000 -0.000000 
-0.019148 0.208739 -0.043809 10.843912 26.301957 82.029944 0.000002 -0.000000 0.000000 0.000000 0.000000 0.000001 0.000002 -0.000000 -0.000000 0.000004 -0.000001 0.000000 0.000924 0.155148 0.009274 48.011271 -0.058338 -25.087169 0.019937 0.078966 0.057518 -0.948852 -2.793007 37.407587 0.177025 -0.020465 -0.095062 -45.488517 -1.897413 -36.681463 -0.213755 -1.607478 12.733138 0.000000 0.000000 0.000005 0.021770 -0.038291 0.012954 0.000003 0.000001 0.000001 -0.000003 -0.000001 -0.000000 0.000000 0.000001 0.000007 -0.000003 0.000005 -0.000002 -0.009090 -0.002348 -0.024223 -0.000004 -0.000001 0.000001 -0.000001 -0.000004 -0.000002 0.000001 -0.000002 -0.000001 0.032823 -0.025104 0.012281 -0.000002 -0.000000 0.000002 -0.000002 0.000003 -0.000008 -0.000003 0.000000 0.000001 -0.000001 -0.000004 0.000002 0.039230 -0.011402 0.008390 0.000002 0.000000 0.000003 -0.000000 0.000001 0.000003 -0.000001 0.000007 -0.000001 -0.000000 -0.000004 0.000003 0.043418 0.002450 0.002889 0.000001 0.000001 -0.000002 -0.000001 -0.000011 -0.000000 -0.000002 0.000003 -0.000005 -0.000001 0.000000 0.000002 -0.016662 0.078957 0.057696 -4.977285 -7.046594 -19.676173 -0.176972 -0.020537 -0.095144 144.522705 -164.726158 -120.517786 -169.903578 189.396638 -169.235654 0.000001 0.000003 0.000001 -0.021773 -0.038278 0.012988 0.000000 -0.000000 -0.000003 -0.000004 0.000004 -0.000004 -0.000002 -0.000001 -0.000006 0.000000 0.000000 0.000001 0.009114 -0.002381 -0.024212 -0.000000 0.000001 -0.000006 -0.000001 -0.000002 -0.000001 -0.000000 -0.000000 -0.000003 -0.032828 -0.025095 0.012286 0.000001 0.000001 -0.000006 -0.000001 0.000002 -0.000001 -0.000001 -0.000002 -0.000006 -0.000003 0.000003 -0.000002 -0.039192 -0.011488 0.008390 0.000001 0.000004 -0.000000 -0.000002 0.000001 -0.000002 -0.000002 -0.000001 0.000002 -0.000006 0.000004 -0.000003 -0.043421 0.002443 0.002845 -0.000000 0.000000 -0.000003 -0.000003 0.000001 -0.000004 -0.000002 -0.000006 0.000002 0.000002 -0.000002 0.000002 0.000000 0.000000 0.000000 -3.212307 -0.096532 -0.014744 -122.010060 -1.131309 -11.286172 169.223455 -1.639044 16.782873 0.000003 -0.000001 -0.000001 -0.000001 -0.000000 0.000004 0.000002 -0.000001 -0.000002 -0.038000 -0.085200 0.016200 0.000002 -0.000003 0.000004 0.000000 0.000000 0.000000 -3.148010 -0.095884 1.219547 -111.723160 0.943958 7.721263 145.630316 0.870060 -8.809925 0.000000 -0.000001 -0.000001 0.000003 0.000001 -0.000001 0.000005 -0.000001 -0.000001 0.038000 -0.085200 0.016200 0.000001 0.000000 -0.000001 
-0.018974 0.210382 -0.044181 14.992016 25.986563 76.873048 0.000002 0.000001 0.000000 0.000001 0.000001 0.000000 0.000001 -0.000000 0.000000 0.000001 -0.000000 -0.000001 0.000924 0.155148 0.009274 48.003649 -0.052359 -21.603402 0.019937 0.078966 0.057518 -1.139752 -2.387345 41.166305 0.177024 -0.020465 -0.095062 -40.353953 -15.967138 -21.659585 0.443379 -0.108136 11.712842 -0.000003 -0.000004 -0.000001 0.021770 -0.038291 0.012954 0.000004 0.000002 -0.000002 -0.000001 -0.000001 0.000001 -0.000002 0.000004 0.000007 0.000002 0.000004 -0.000000 -0.009090 -0.002348 -0.024223 -0.000001 0.000000 -0.000001 -0.000001 0.000001 0.000006 0.000001 0.000001 0.000006 0.032823 -0.025104 0.012281 0.000002 0.000003 0.000007 0.000000 0.000004 -0.000003 -0.000006 -0.000000 -0.000000 0.000004 0.000003 0.000005 0.039230 -0.011402 0.008390 0.000002 0.000002 0.000006 0.000005 0.000004 -0.000002 -0.000001 0.000002 0.000005 0.000000 -0.000002 0.000003 0.043417 0.002450 0.002889 0.000001 0.000005 -0.000000 0.000001 -0.000000 -0.000005 0.000000 0.000003 0.000001 -0.000002 0.000000 -0.000002 -0.016662 0.078957 0.057696 -6.532689 -7.214475 -19.369182 -0.176972 -0.020537 -0.095144 139.292638 -168.307568 -127.899609 -167.301030 191.829428 -168.068430 0.000001 -0.000000 0.000002 -0.021773 -0.038278 0.012988 -0.000000 -0.000000 -0.000003 -0.000001 0.000001 -0.000001 -0.000003 0.000000 -0.000001 0.000002 -0.000002 0.000003 0.009113 -0.002381 -0.024212 0.000000 -0.000004 0.000002 -0.000000 -0.000001 0.000000 0.000000 0.000001 -0.000001 -0.032828 -0.025095 0.012286 0.000001 -0.000002 0.000001 -0.000001 0.000001 -0.000003 0.000003 0.000000 0.000004 -0.000005 0.000003 -0.000006 -0.039192 -0.011488 0.008390 0.000000 0.000000 -0.000000 0.000001 0.000002 -0.000005 0.000001 -0.000007 0.000001 -0.000003 0.000003 -0.000003 -0.043421 0.002443 0.002845 0.000001 -0.000001 -0.000001 -0.000002 0.000002 -0.000001 -0.000002 -0.000001 0.000002 -0.000002 -0.000002 -0.000004 -0.000000 0.000000 -0.000000 -3.310533 -0.178251 0.716075 -124.023135 -0.872168 -7.959614 172.497875 -1.775336 18.226010 0.000000 -0.000001 0.000002 -0.000002 -0.000003 0.000002 -0.000002 -0.000001 0.000002 -0.038000 -0.085200 0.016200 0.000002 -0.000003 0.000002 -0.000000 0.000000 0.000000 -3.247951 -0.176819 1.950449 -110.729784 0.452116 1.248105 140.860835 1.051576 -10.668779 0.000000 0.000001 0.000001 -0.000003 0.000002 0.000003 0.000002 -0.000000 -0.000000 0.038000 -0.085200 0.016200 0.000001 -0.000002 -0.000001 
-0.018745 0.210803 -0.044017 16.296927 26.713254 73.372426 0.000001 -0.000000 0.000000 -0.000001 0.000002 -0.000001 -0.000004 0.000000 -0.000000 -0.000001 0.000000 0.000000 0.000924 0.155147 0.009274 50.286885 -0.044902 -20.757051 0.019937 0.078966 0.057518 -1.006805 -0.668692 47.509191 0.177024 -0.020465 -0.095062 -29.819855 -20.193856 -10.270133 2.791436 4.675716 7.483664 -0.000002 0.000001 -0.000002 0.021770 -0.038291 0.012954 0.000001 0.000002 -0.000001 0.000000 0.000001 0.000003 -0.000000 -0.000000 0.000005 0.000002 0.000003 0.000000 -0.009090 -0.002348 -0.024223 0.000002 0.000000 0.000003 0.000001 -0.000000 0.000005 0.000001 0.000002 -0.000004 0.032823 -0.025104 0.012281 -0.000002 0.000000 0.000002 0.000001 0.000004 -0.000005 -0.000004 -0.000001 -0.000000 -0.000001 0.000006 0.000003 0.039230 -0.011402 0.008390 0.000003 0.000000 0.000003 0.000002 0.000000 -0.000002 -0.000000 0.000008 -0.000002 0.000000 -0.000003 0.000003 0.043417 0.002450 0.002889 0.000002 0.000003 -0.000002 0.000000 -0.000003 -0.000000 -0.000000 -0.000001 -0.000000 -0.000000 -0.000002 -0.000001 -0.016662 0.078957 0.057696 -7.749766 -6.171676 -20.201505 -0.176972 -0.020537 -0.095144 135.234344 -171.648173 -132.531679 -167.922031 194.138346 -173.541815 -0.000001 -0.000001 0.000000 -0.021773 -0.038278 0.012988 0.000001 -0.000001 0.000002 -0.000002 0.000001 -0.000001 0.000001 0.000003 -0.000004 0.000000 0.000002 0.000002 0.009113 -0.002381 -0.024211 -0.000002 -0.000002 0.000000 0.000001 0.000000 0.000000 -0.000001 -0.000001 -0.000001 -0.032828 -0.025095 0.012286 0.000000 -0.000001 0.000001 -0.000001 0.000002 -0.000001 0.000003 0.000000 -0.000000 -0.000002 0.000002 -0.000007 -0.039192 -0.011488 0.008390 0.000001 -0.000001 0.000005 -0.000001 0.000001 0.000000 0.000001 -0.000001 0.000002 0.000003 0.000005 0.000003 -0.043421 0.002443 0.002845 -0.000001 -0.000001 -0.000001 -0.000002 -0.000001 0.000005 0.000002 0.000000 0.000002 -0.000002 0.000002 0.000003 0.000000 0.000000 -0.000000 -3.220795 -0.010084 -0.810004 -129.295577 -0.951137 -9.285230 176.939643 -1.890462 19.454619 -0.000003 -0.000001 0.000000 0.000000 -0.000000 0.000000 0.000003 -0.000001 -0.000001 -0.038000 -0.085200 0.016200 -0.000002 -0.000002 0.000000 0.000000 0.000000 -0.000000 -3.152467 -0.010336 0.424197 -113.129236 0.427935 1.043030 139.590147 1.352319 -13.775281 0.000002 0.000001 -0.000000 0.000000 -0.000001 0.000003 0.000005 0.000000 0.000002 0.038000 -0.085200 0.016200 -0.000001 -0.000000 -0.000001 
